<?xml version="1.0" standalone="no"?>
<!DOCTYPE svg PUBLIC "-//W3C//DTD SVG 20010904/EN"
  "http://www.w3.org/TR/2001/REC-SVG-20010904/DTD/svg10.dtd">
<svg version="1.0" xmlns="http://www.w3.org/2000/svg"
     width="1071.000000pt" height="1280.000000pt" viewBox="0 0 1071.000000 1280.000000"
     preserveAspectRatio="xMidYMid meet">
  <metadata>
    Created by potrace 1.15, written by Peter Selinger 2001-2017
  </metadata>
  <g transform="translate(0.000000,1280.000000) scale(0.100000,-0.100000)"
     fill="#ffffff" stroke="none">
    <path d="M2605 12793 c-558 -48 -1065 -327 -1499 -823 -628 -717 -953 -1569
-1082 -2835 -22 -210 -25 -812 -6 -1040 41 -482 102 -922 237 -1690 30 -170
63 -338 74 -373 25 -82 61 -132 114 -163 39 -23 51 -24 192 -23 93 0 243 11
395 28 692 77 896 93 1635 132 437 22 894 32 914 20 13 -8 304 12 342 24 77
22 114 83 154 254 107 452 336 1516 399 1851 122 652 173 1102 183 1630 18
978 -137 1680 -490 2210 -268 403 -601 657 -990 755 -172 43 -387 59 -572 43z"/>
    <path d="M8040 10794 c-354 -45 -698 -218 -989 -499 -184 -178 -327 -378 -456
-640 -245 -497 -380 -1060 -435 -1822 -16 -211 -26 -745 -18 -894 13 -242 209
-2465 223 -2533 29 -138 92 -198 243 -230 42 -9 322 -52 622 -96 1229 -179
1595 -241 2010 -341 349 -85 516 -119 581 -119 119 0 182 53 239 201 37 96
260 852 346 1174 148 551 239 1051 286 1565 16 186 16 766 0 965 -62 725 -187
1220 -441 1750 -357 745 -845 1212 -1496 1433 -183 62 -313 84 -505 87 -96 2
-191 1 -210 -1z"/>
    <path d="M3270 5399 c-80 -5 -435 -31 -790 -58 -355 -28 -737 -55 -850 -61
-113 -5 -299 -15 -415 -20 -398 -20 -491 -44 -542 -143 -20 -40 -20 -134 2
-217 49 -191 265 -869 360 -1130 338 -930 686 -1447 1123 -1673 501 -259 1087
-166 1497 238 235 231 422 579 498 926 40 181 51 290 51 509 l0 205 -132 640
c-87 422 -140 655 -155 685 -33 67 -61 79 -223 90 -238 16 -275 17 -424 9z"/>
    <path d="M6501 3535 c-47 -15 -82 -43 -111 -90 -21 -33 -245 -688 -310 -905
-45 -148 -64 -279 -80 -537 -13 -223 -13 -606 1 -753 14 -155 30 -219 91 -367
194 -472 522 -753 1001 -855 136 -28 374 -31 494 -5 467 100 843 439 1238
1117 183 313 686 1354 763 1578 27 76 29 170 5 219 -22 47 -82 89 -162 114
-68 21 -616 121 -1386 253 -598 103 -1478 247 -1495 245 -3 0 -25 -6 -49 -14z"/>
  </g>
</svg>
